<svg width="424" height="424" viewBox="0 0 424 424" fill="none" xmlns="http://www.w3.org/2000/svg">
<g clip-path="url(#clip0)">
<path d="M256.355 268.987C255.194 268.641 253.973 268.564 252.782 268.739C252.643 268.732 252.503 268.729 252.364 268.723C263.113 258.221 269.805 243.581 269.805 227.401V144.922C269.805 140.349 266.096 136.641 261.523 136.641H200.18C174.825 136.641 154.198 157.268 154.198 182.623V227.4C154.198 243.58 160.889 258.22 171.639 268.722C171.5 268.728 171.36 268.732 171.221 268.738C170.03 268.564 168.808 268.64 167.647 268.986C124.836 272.829 91.1682 308.901 91.1682 352.696V393.359C91.1682 397.932 94.8766 401.641 99.4495 401.641H324.554C329.127 401.641 332.835 397.932 332.835 393.359V352.697C332.833 308.903 299.166 272.83 256.355 268.987ZM170.758 194.223V182.623C170.758 166.401 183.957 153.203 200.178 153.203H253.241V175.365C253.241 186.562 244.13 195.673 232.932 195.673H170.758V194.223ZM170.758 227.401V212.235H232.932C240.433 212.235 247.412 209.979 253.241 206.117V227.4C253.241 250.14 234.739 268.641 211.999 268.641C189.259 268.641 170.758 250.141 170.758 227.401ZM233.993 285.204L212 307.197L190.007 285.204H233.993ZM316.271 385.078H107.729V361.245H175.307C179.88 361.245 183.589 357.536 183.589 352.963C183.589 348.391 179.88 344.682 175.307 344.682H108.222C111.882 313.903 136.328 289.425 167.091 285.711L206.144 324.765C207.762 326.381 209.881 327.191 212 327.191C214.119 327.191 216.238 326.381 217.856 324.765L256.909 285.711C290.302 289.742 316.271 318.235 316.271 352.697V385.078Z" fill="#F1F3F6"/>
<path d="M217.854 347.109C216.315 345.568 214.178 344.682 212 344.682C209.822 344.682 207.685 345.568 206.145 347.109C204.605 348.649 203.719 350.785 203.719 352.963C203.719 355.141 204.604 357.278 206.145 358.818C207.685 360.358 209.822 361.245 212 361.245C214.178 361.245 216.315 360.359 217.854 358.818C219.394 357.278 220.281 355.141 220.281 352.963C220.281 350.785 219.395 348.649 217.854 347.109Z" fill="#F1F3F6"/>
<path d="M212.105 22.3594C194.754 22.3594 180.636 36.4764 180.636 53.8281C180.636 68.3137 190.478 80.5376 203.824 84.183V104.408C203.824 108.981 207.532 112.69 212.105 112.69C216.678 112.69 220.386 108.981 220.386 104.408V84.183C233.733 80.5376 243.574 68.3137 243.574 53.8281C243.574 36.4764 229.457 22.3594 212.105 22.3594ZM212.105 68.7344C203.886 68.7344 197.199 62.0473 197.199 53.8281C197.199 45.609 203.886 38.9219 212.105 38.9219C220.324 38.9219 227.011 45.609 227.011 53.8281C227.011 62.0473 220.324 68.7344 212.105 68.7344Z" fill="#F1F3F6"/>
<path d="M378.356 86.954C372.412 81.0105 364.51 77.7369 356.105 77.7369C347.699 77.7369 339.797 81.0105 333.853 86.9548C323.611 97.1979 321.926 112.8 328.785 124.815L314.483 139.117C311.249 142.351 311.249 147.594 314.483 150.829C316.101 152.445 318.22 153.254 320.34 153.254C322.46 153.254 324.578 152.445 326.195 150.828L340.49 136.533C345.194 139.23 350.536 140.675 356.105 140.675C364.51 140.675 372.412 137.402 378.355 131.458C384.301 125.515 387.574 117.612 387.574 109.207C387.574 100.801 384.301 92.8982 378.356 86.954ZM366.646 119.748C360.834 125.559 351.377 125.559 345.566 119.748C339.753 113.935 339.753 104.478 345.565 98.6661C348.471 95.7594 352.288 94.3069 356.105 94.3069C359.923 94.3069 363.74 95.7594 366.646 98.6661C369.461 101.482 371.012 105.225 371.012 109.207C371.012 113.189 369.461 116.932 366.646 119.748Z" fill="#F1F3F6"/>
<path d="M392.531 221.799C378.046 221.799 365.822 231.641 362.176 244.987H341.951C337.378 244.987 333.67 248.695 333.67 253.268C333.67 257.841 337.378 261.549 341.951 261.549H362.176C365.822 274.895 378.046 284.737 392.531 284.737C409.883 284.737 424 270.62 424 253.268C424 235.916 409.883 221.799 392.531 221.799ZM392.531 268.174C384.312 268.174 377.625 261.487 377.625 253.268C377.625 245.049 384.312 238.362 392.531 238.362C400.751 238.362 407.438 245.049 407.438 253.268C407.438 261.487 400.751 268.174 392.531 268.174Z" fill="#F1F3F6"/>
<path d="M316.401 247.411C314.861 245.87 312.725 244.984 310.547 244.984C308.369 244.984 306.232 245.87 304.692 247.411C303.152 248.952 302.266 251.088 302.266 253.266C302.266 255.452 303.151 257.58 304.692 259.12C306.232 260.669 308.369 261.547 310.547 261.547C312.725 261.547 314.861 260.668 316.401 259.12C317.941 257.58 318.828 255.443 318.828 253.266C318.828 251.088 317.942 248.959 316.401 247.411Z" fill="#F1F3F6"/>
<path d="M82.049 244.776H61.8237C58.1783 231.43 45.9543 221.589 31.4688 221.589C14.117 221.589 0 235.706 0 253.058C0 270.409 14.117 284.526 31.4688 284.526C45.9543 284.526 58.1783 274.685 61.8237 261.339H82.049C86.6219 261.339 90.3302 257.631 90.3302 253.058C90.3302 248.485 86.6227 244.776 82.049 244.776ZM31.4688 267.964C23.2496 267.964 16.5625 261.277 16.5625 253.058C16.5625 244.838 23.2496 238.151 31.4688 238.151C39.6879 238.151 46.375 244.838 46.375 253.058C46.375 261.277 39.6879 267.964 31.4688 267.964Z" fill="#F1F3F6"/>
<path d="M109.015 138.318L94.7202 124.023C97.4183 119.32 98.8625 113.976 98.8625 108.408C98.8625 100.003 95.5889 92.0999 89.6446 86.1556C83.7004 80.2122 75.7984 76.9386 67.3929 76.9386C58.9875 76.9386 51.0855 80.2122 45.1412 86.1565C32.8725 98.426 32.8725 118.39 45.1412 130.66C51.0855 136.603 58.9874 139.877 67.3937 139.877C72.9621 139.877 78.3051 138.432 83.0089 135.735L97.304 150.03C98.9213 151.646 101.04 152.455 103.16 152.455C105.279 152.455 107.398 151.646 109.015 150.03C112.249 146.796 112.249 141.552 109.015 138.318ZM77.9383 118.945C77.9374 118.947 77.9358 118.948 77.9341 118.949C72.1223 124.763 62.6652 124.763 56.8542 118.949C51.0416 113.137 51.0416 103.68 56.8534 97.8678C59.7593 94.9619 63.5761 93.5086 67.3937 93.5086C71.2114 93.5086 75.0282 94.9619 77.9341 97.8678C80.7498 100.683 82.3008 104.427 82.3008 108.409C82.3008 112.388 80.7506 116.13 77.9383 118.945Z" fill="#F1F3F6"/>
</g>
<defs>
<clipPath id="clip0">
<rect width="424" height="424" fill="white"/>
</clipPath>
</defs>
</svg>
